<?xml version="1.0" encoding="utf-8"?>
<svg version="1.1" id="Layer_1" x="0px" y="0px" viewBox="0 0 512 512" style="enable-background:new 0 0 512 512;" xmlns="http://www.w3.org/2000/svg">
  <polygon style="fill:transparent;" points="41.356,374.401 41.356,137.607 256,18.652 470.644,137.607 470.644,374.401 256,493.357 "/>
  <g/>
  <g/>
  <g/>
  <g/>
  <g/>
  <g/>
  <g/>
  <g/>
  <g/>
  <g/>
  <g/>
  <g/>
  <g/>
  <g/>
  <g/>
  <path style="fill:#E81241;" d="M 255.728 37.303 L 454.061 147.222 L 454.061 364.777 L 255.728 474.697 L 57.395 364.778 L 57.395 147.222 L 255.728 37.303 M 255.728 0 L 24.773 128 L 24.773 384 L 255.728 512 L 486.683 384 L 486.683 128 L 255.728 0 Z"/>
  <g transform="matrix(1, 0, 0, 1, 303.108957, 0)"/>
  <g transform="matrix(1, 0, 0, 1, 303.108957, 0)"/>
  <g transform="matrix(1, 0, 0, 1, 303.108957, 0)"/>
  <g transform="matrix(1, 0, 0, 1, 303.108957, 0)"/>
  <g transform="matrix(1, 0, 0, 1, 303.108957, 0)"/>
  <g transform="matrix(1, 0, 0, 1, 303.108957, 0)"/>
  <g transform="matrix(1, 0, 0, 1, 303.108957, 0)"/>
  <g transform="matrix(1, 0, 0, 1, 303.108957, 0)"/>
  <g transform="matrix(1, 0, 0, 1, 303.108957, 0)"/>
  <g transform="matrix(1, 0, 0, 1, 303.108957, 0)"/>
  <g transform="matrix(1, 0, 0, 1, 303.108957, 0)"/>
  <g transform="matrix(1, 0, 0, 1, 303.108957, 0)"/>
  <g transform="matrix(1, 0, 0, 1, 303.108957, 0)"/>
  <g transform="matrix(1, 0, 0, 1, 303.108957, 0)"/>
  <g transform="matrix(1, 0, 0, 1, 303.108957, 0)"/>
  <text style="fill: #E81241;; font-family: Arial, sans-serif; font-size: 17.4px; stroke: rgb(164, 203, 36); stroke-width: 0px; white-space: pre;" transform="matrix(19.266846, 0, 0, 13.044611, -3914.443604, -2324.077393)" x="210.751" y="203.312">A</text>
</svg>